# xmcd
#
# Track frame offsets:
#	150
#	15639
#	31050
#	46835
#	63374
#	79275
#	96215
#	111513
#	128331
#	140593
#	155866
#	168741
#	187973
#	206798
#	221639
#	236977
#
# Disc length: 3387 seconds
#
# Revision: 0
# Processed by: cddbd v1.5.2PL0 Copyright (c) Steve Scherf et al.
# Submitted via: EasyCDDAExtractor 8.2.3.1
#
DISCID=e70d3910
DTITLE=Chris Anderson - The Songs Of Glenn Erickson
DYEAR=2007
DGENRE=Country
TTITLE0=Takin' The Fifth
TTITLE1=Freedom Of The Road
TTITLE2=Second Fiddle
TTITLE3=If I Make It 'Til Dawn
TTITLE4=It Ain't Over
TTITLE5=The Bible and The Bottle
TTITLE6=My Aim Is Getting Better
TTITLE7=The Long Hard Road
TTITLE8=Deal The Cards
TTITLE9=Workship The Ground
TTITLE10=Do'Wanna Sleep Alone
TTITLE11=The Winds Of Freedom
TTITLE12=Gold In California
TTITLE13=My Kinda' Woman
TTITLE14=Don't Look Back
TTITLE15=Island Paradise
EXTD=
EXTT0=
EXTT1=
EXTT2=
EXTT3=
EXTT4=
EXTT5=
EXTT6=
EXTT7=
EXTT8=
EXTT9=
EXTT10=
EXTT11=
EXTT12=
EXTT13=
EXTT14=
EXTT15=
PLAYORDER=
